<?xml version="1.0" standalone="no"?>
<!DOCTYPE svg PUBLIC "-//W3C//DTD SVG 20010904//EN"
 "http://www.w3.org/TR/2001/REC-SVG-20010904/DTD/svg10.dtd">
<svg version="1.0" xmlns="http://www.w3.org/2000/svg"
 width="512.000000pt" height="512.000000pt" viewBox="0 0 512.000000 512.000000"
 preserveAspectRatio="xMidYMid meet">

<g transform="translate(0.000000,512.000000) scale(0.100000,-0.100000)"
fill="#000000" stroke="none">
<path d="M1930 3990 l0 -160 630 0 630 0 0 160 0 160 -630 0 -630 0 0 -160z"/>
<path d="M1610 3670 l0 -160 -160 0 -161 0 3 -157 3 -158 155 0 155 0 3 157 3
157 157 3 157 3 0 155 0 155 -157 3 -158 3 0 -161z"/>
<path d="M3194 3817 c-2 -7 -3 -78 -2 -157 l3 -145 157 -3 157 -3 3 -157 3
-157 155 0 155 0 3 158 3 157 -161 0 -160 0 0 160 0 160 -155 0 c-118 0 -157
-3 -161 -13z"/>
<path d="M2242 3353 l3 -158 315 0 315 0 3 158 3 157 -321 0 -321 0 3 -157z"/>
<path d="M970 3035 l0 -155 -155 0 -155 0 0 -320 0 -320 155 0 155 0 0 -155 0
-155 160 0 160 0 0 155 0 155 -160 0 -160 0 0 320 0 320 160 0 160 0 0 155 0
155 -160 0 -160 0 0 -155z"/>
<path d="M1930 3035 l0 -155 155 0 155 0 0 155 0 155 -155 0 -155 0 0 -155z"/>
<path d="M2880 3035 l0 -155 155 0 155 0 0 155 0 155 -155 0 -155 0 0 -155z"/>
<path d="M3830 3035 l0 -155 160 0 160 0 0 -320 0 -320 -160 0 -160 0 0 -155
0 -155 160 0 160 0 0 155 0 155 155 0 155 0 0 320 0 320 -155 0 -155 0 0 155
0 155 -160 0 -160 0 0 -155z"/>
<path d="M1610 2560 l0 -321 158 3 157 3 0 315 0 315 -157 3 -158 3 0 -321z"/>
<path d="M3195 2867 c-3 -7 -4 -149 -3 -317 l3 -305 158 -3 157 -3 0 321 0
320 -155 0 c-116 0 -157 -3 -160 -13z"/>
<path d="M1930 2085 l0 -155 155 0 155 0 0 155 0 155 -155 0 -155 0 0 -155z"/>
<path d="M2880 2085 l0 -155 155 0 155 0 0 155 0 155 -155 0 -155 0 0 -155z"/>
<path d="M1297 1924 c-4 -4 -7 -76 -7 -161 l0 -153 160 0 160 0 0 -160 0 -161
158 3 157 3 0 155 0 155 -157 3 -157 3 -3 157 -3 157 -151 3 c-82 1 -153 -1
-157 -4z"/>
<path d="M2247 1923 c-4 -3 -7 -75 -7 -160 l0 -153 320 0 321 0 -3 158 -3 157
-311 3 c-171 1 -313 -1 -317 -5z"/>
<path d="M3517 1924 c-4 -4 -7 -76 -7 -160 l0 -153 -157 -3 -158 -3 0 -155 0
-155 158 -3 157 -3 0 161 0 160 160 0 161 0 -3 158 -3 157 -151 3 c-82 1 -153
-1 -157 -4z"/>
<path d="M1930 1130 l0 -160 630 0 630 0 0 160 0 160 -630 0 -630 0 0 -160z"/>
</g>
</svg>
