<?xml version="1.0" standalone="no"?>
<!DOCTYPE svg PUBLIC "-//W3C//DTD SVG 20010904//EN"
 "http://www.w3.org/TR/2001/REC-SVG-20010904/DTD/svg10.dtd">
<svg version="1.0" xmlns="http://www.w3.org/2000/svg"
 width="512.000000pt" height="512.000000pt" viewBox="0 0 512.000000 512.000000"
 preserveAspectRatio="xMidYMid meet">

<g transform="translate(0.000000,512.000000) scale(0.100000,-0.100000)" stroke="none">
<path d="M1420 4190 l0 -160 -165 0 -165 0 0 -1470 0 -1470 165 0 165 0 0
-160 0 -160 650 0 650 0 0 160 0 160 -650 0 -650 0 0 1470 0 1470 650 0 650 0
0 160 0 160 -650 0 -650 0 0 -160z"/>
<path d="M3050 3215 l0 -165 -655 0 -655 0 0 -490 0 -490 655 0 655 0 0 -165
0 -165 163 2 162 3 3 163 2 162 160 0 160 0 0 165 0 165 165 0 165 0 0 160 0
160 -165 0 -165 0 0 165 0 165 -160 0 -160 0 -2 163 -3 162 -162 3 -163 2 0
-165z m330 -330 l0 -165 160 0 160 0 0 -160 0 -160 -160 0 -160 0 0 -165 0
-165 -165 0 -165 0 0 165 0 165 -490 0 -490 0 0 160 0 160 490 0 490 0 0 165
0 165 165 0 165 0 0 -165z"/>
</g>
</svg>
