<?xml version="1.0" standalone="no"?>
<!DOCTYPE svg PUBLIC "-//W3C//DTD SVG 20010904//EN"
 "http://www.w3.org/TR/2001/REC-SVG-20010904/DTD/svg10.dtd">
<svg version="1.0" xmlns="http://www.w3.org/2000/svg"
 width="512.000000pt" height="512.000000pt" viewBox="0 0 512.000000 512.000000"
 preserveAspectRatio="xMidYMid meet">

<g transform="translate(0.000000,512.000000) scale(0.100000,-0.100000)"
fill="#000000" stroke="none">
<path d="M1800 4605 l0 -255 -255 0 -255 0 0 -770 0 -770 255 0 255 0 0 -255
0 -255 765 0 765 0 0 255 0 255 258 2 257 3 3 768 2 767 -260 0 -260 0 0 255
0 255 -765 0 -765 0 0 -255z m1530 -1025 l0 -770 -765 0 -765 0 0 770 0 770
765 0 765 0 0 -770z"/>
<path d="M770 2045 l0 -255 -255 0 -255 0 2 -767 3 -768 2303 -3 2302 -2 0
770 0 770 -255 0 -255 0 0 255 0 255 -255 0 -255 0 0 -255 0 -255 255 0 255 0
0 -510 0 -510 -1795 0 -1795 0 0 510 0 510 260 0 260 0 0 255 0 255 -260 0
-260 0 0 -255z"/>
</g>
</svg>
